<svg width="100" height="100" viewBox="0 0 100 100" fill="none" xmlns="http://www.w3.org/2000/svg">
<g clip-path="url(#clip0_476_884)">
<path d="M0 3.125C0 2.2962 0.32924 1.50134 0.915291 0.915291C1.50134 0.32924 2.2962 0 3.125 0L34.375 0C35.2038 0 35.9987 0.32924 36.5847 0.915291C37.1708 1.50134 37.5 2.2962 37.5 3.125V36.1062L63.4188 10.2875C64.0048 9.70165 64.7995 9.37254 65.6281 9.37254C66.4568 9.37254 67.2515 9.70165 67.8375 10.2875L89.9312 32.3875C90.2223 32.6778 90.4532 33.0226 90.6107 33.4023C90.7682 33.7819 90.8493 34.189 90.8493 34.6C90.8493 35.011 90.7682 35.4181 90.6107 35.7977C90.4532 36.1774 90.2223 36.5222 89.9312 36.8125L64.1312 62.5H96.875C97.7038 62.5 98.4987 62.8292 99.0847 63.4153C99.6708 64.0013 100 64.7962 100 65.625V96.875C100 97.7038 99.6708 98.4987 99.0847 99.0847C98.4987 99.6708 97.7038 100 96.875 100H18.75C16.2874 100.003 13.8485 99.519 11.5736 98.5762C9.29858 97.6334 7.23239 96.2502 5.49375 94.5063C2.03819 91.0622 0.0665253 86.4033 0 81.525M37.5 80.2125L83.3 34.5875L65.6187 16.9125L37.5 44.925V80.2188V80.2125ZM28.125 81.25C28.125 78.7636 27.1373 76.379 25.3791 74.6209C23.621 72.8627 21.2364 71.875 18.75 71.875C16.2636 71.875 13.879 72.8627 12.1209 74.6209C10.3627 76.379 9.375 78.7636 9.375 81.25C9.375 83.7364 10.3627 86.121 12.1209 87.8791C13.879 89.6373 16.2636 90.625 18.75 90.625C21.2364 90.625 23.621 89.6373 25.3791 87.8791C27.1373 86.121 28.125 83.7364 28.125 81.25ZM93.75 93.75V68.75H57.8625L32.7688 93.75H93.75Z" fill="#0afdd8"/>
</g>
<defs>
<clipPath id="clip0_476_884">
<rect width="100" height="100" fill="white"/>
</clipPath>
</defs>
</svg>
